<svg viewBox="0 0 12 12" width="240px" height="240px" xmlns="http://www.w3.org/2000/svg"><path fill-rule="evenodd" d="M 0,0 11,0 11,11 6,11 6,9 5,9 5,11 0,11z M 3,3 4,3 4,6 3,6z M 7,3 8,3 8,6 7,6z" fill="#13C9BA"/><path fill-rule="evenodd" d="M 1,1 2,1 2,2 1,2z" fill="#ffffff"/><path fill-rule="evenodd" d="M 4,1 7,1 7,2 4,2z" fill="#ffffff"/><path fill-rule="evenodd" d="M 9,1 10,1 10,2 9,2z" fill="#ffffff"/><path fill-rule="evenodd" d="M 5,3 6,3 6,5 5,5z" fill="#ffffff"/><path fill-rule="evenodd" d="M 1,4 2,4 2,5 1,5z" fill="#ffffff"/><path fill-rule="evenodd" d="M 9,4 10,4 10,5 9,5z" fill="#ffffff"/><path fill-rule="evenodd" d="M 1,7 2,7 2,8 1,8z" fill="#ffffff"/><path fill-rule="evenodd" d="M 4,7 5,7 5,8 4,8z" fill="#ffffff"/><path fill-rule="evenodd" d="M 6,7 7,7 7,8 6,8z" fill="#ffffff"/><path fill-rule="evenodd" d="M 9,7 10,7 10,8 9,8z" fill="#ffffff"/><path fill-rule="evenodd" d="M 1,9 2,9 2,10 1,10z" fill="#ffffff"/><path fill-rule="evenodd" d="M 3,9 4,9 4,10 3,10z" fill="#ffffff"/><path fill-rule="evenodd" d="M 7,9 8,9 8,10 7,10z" fill="#ffffff"/><path fill-rule="evenodd" d="M 9,9 10,9 10,10 9,10z" fill="#ffffff"/></svg>